<?xml version="1.0" standalone="no"?>
<!DOCTYPE svg PUBLIC "-//W3C//DTD SVG 20010904//EN"
 "http://www.w3.org/TR/2001/REC-SVG-20010904/DTD/svg10.dtd">
<svg version="1.0" xmlns="http://www.w3.org/2000/svg"
 width="512.000000pt" height="512.000000pt" viewBox="0 0 512.000000 512.000000"
 preserveAspectRatio="xMidYMid meet">
<metadata>
Created by potrace 1.11, written by Peter Selinger 2001-2013
</metadata>
<g transform="translate(0.000000,512.000000) scale(0.100000,-0.100000)"
fill="#000000" stroke="none">
<path d="M595 4769 c-89 -122 -261 -234 -428 -279 -71 -19 -131 -32 -154 -33
-10 0 -13 -53 -13 -228 l0 -228 198 0 c108 0 206 0 217 0 20 -1 20 -8 21
-1274 0 -699 3 -1315 7 -1367 12 -177 49 -306 118 -410 106 -158 290 -256 525
-278 44 -4 302 -7 574 -6 379 0 494 3 492 13 -1 7 8 5 25 -6 18 -12 28 -14 30
-6 3 8 14 9 34 3 20 -6 29 -5 29 3 0 9 2 9 8 1 5 -8 13 -4 25 12 12 16 14 24
5 24 -9 0 -9 3 0 12 17 17 15 33 -3 18 -9 -7 -15 -8 -15 -2 0 5 7 13 16 16 14
5 14 8 0 28 -9 12 -16 27 -16 33 0 5 10 -6 22 -25 12 -19 21 -40 20 -46 -1 -6
4 -17 12 -23 12 -10 14 -8 12 13 -1 14 -11 35 -21 46 -10 11 -14 20 -9 20 5 0
2 5 -6 11 -13 10 -13 10 1 6 12 -4 16 2 16 23 0 25 -3 28 -20 19 -10 -6 -22
-8 -25 -4 -3 3 4 8 16 12 24 6 29 19 10 26 -7 2 -6 3 3 2 11 -2 16 6 16 25 0
17 -5 26 -12 24 -7 -3 -18 3 -26 12 -9 12 -10 15 -1 10 11 -7 17 5 13 27 -1 5
3 6 9 2 5 -3 10 -2 10 4 0 5 -6 11 -12 14 -7 2 -6 3 3 2 11 -2 16 6 16 27 l0
30 -18 -23 c-10 -13 -19 -19 -19 -14 0 6 -5 3 -11 -5 -7 -10 -9 -11 -7 -2 2 8
6 12 9 10 11 -6 58 57 49 66 -13 13 -160 15 -152 2 4 -8 1 -8 -9 0 -9 7 -120
11 -319 12 -168 0 -323 4 -345 7 -65 10 -105 53 -132 147 -14 47 -16 209 -18
1391 l-2 1337 66 1 c36 0 134 0 217 0 l152 0 1 224 c0 248 7 226 -69 240 -73
14 -178 48 -247 81 -98 47 -177 107 -253 193 l-64 71 -271 0 -270 0 -30 -41z
m1662 -3691 c-3 -8 -6 -5 -6 6 -1 11 2 17 5 13 3 -3 4 -12 1 -19z m37 16 c22
-8 20 -21 -4 -34 -14 -7 -20 -7 -20 0 0 5 8 10 18 10 15 1 15 2 -2 15 -21 16
-18 19 8 9z m-70 -21 c4 -10 1 -11 -12 -5 -9 5 -25 8 -35 7 -9 -2 -15 0 -13 4
8 12 55 8 60 -6z m23 -44 c-16 -22 -16 -22 -14 -1 0 11 5 18 9 16 4 -3 8 0 8
7 0 7 3 10 6 6 3 -3 -1 -16 -9 -28z m-197 17 c0 -2 -7 -7 -16 -10 -8 -3 -12
-2 -9 4 6 10 25 14 25 6z m124 -24 c3 -5 -1 -9 -9 -9 -8 0 -12 4 -9 9 3 4 7 8
9 8 2 0 6 -4 9 -8z m91 -2 c-3 -5 2 -10 11 -10 10 0 15 -3 11 -6 -10 -10 -39
5 -32 16 3 5 8 10 11 10 3 0 2 -4 -1 -10z m-215 -20 c0 -5 -2 -10 -4 -10 -3 0
-8 5 -11 10 -3 6 -1 10 4 10 6 0 11 -4 11 -10z m157 -32 c1 -10 -3 -18 -9 -18
-6 0 -8 3 -5 7 4 3 2 11 -3 18 -7 8 -6 12 3 12 7 0 14 -9 14 -19z m83 12 c-8
-5 -18 -6 -23 -3 -5 3 -6 -4 -3 -15 8 -24 -4 -35 -24 -20 -12 8 -11 9 4 4 14
-5 17 -2 12 10 -8 21 -2 29 26 31 17 2 19 0 8 -7z m-115 -40 c3 -6 -1 -7 -9
-4 -18 7 -21 14 -7 14 6 0 13 -4 16 -10z m113 -16 c0 -17 -3 -22 -8 -13 -5 6
-6 18 -3 26 8 19 11 16 11 -13z m-45 -17 c-4 -6 0 -8 11 -4 9 4 15 3 11 -2 -9
-16 -43 -9 -37 8 4 10 1 12 -8 6 -8 -5 -11 -4 -6 3 4 6 13 9 21 6 8 -4 12 -11
8 -17z m77 19 c0 -3 -4 -8 -10 -11 -5 -3 -10 -1 -10 4 0 6 5 11 10 11 6 0 10
-2 10 -4z m-110 -46 c0 -5 -4 -10 -10 -10 -5 0 -10 5 -10 10 0 6 5 10 10 10 6
0 10 -4 10 -10z m80 2 c0 -4 -10 -9 -22 -9 -18 -2 -20 0 -8 7 18 12 30 13 30
2z m-36 -39 c4 -10 4 -14 0 -11 -4 4 -16 3 -28 -3 -19 -9 -19 -9 -4 4 10 8 15
17 11 20 -3 4 -2 7 4 7 6 0 14 -8 17 -17z m29 4 c3 -8 2 -20 -3 -26 -5 -9 -7
-4 -7 13 0 29 2 32 10 13z m-109 -29 c-2 -3 -13 -6 -24 -5 -24 2 -18 13 9 13
11 0 18 -4 15 -8z m81 -16 c-3 -3 -11 0 -18 7 -9 10 -8 11 6 5 10 -3 15 -9 12
-12z m-33 -16 c7 4 8 2 4 -5 -9 -14 -36 3 -36 23 0 6 5 3 11 -7 6 -9 15 -14
21 -11z m-117 5 c3 -5 2 -12 -3 -15 -5 -3 -9 1 -9 9 0 17 3 19 12 6z m180 -11
c-3 -4 1 -11 7 -13 7 -3 8 -6 2 -6 -5 -1 -19 6 -30 14 -18 15 -18 15 0 8 14
-5 17 -3 11 7 -5 9 -4 11 4 6 6 -4 9 -11 6 -16z m-89 -22 c12 -14 13 -18 3
-10 -9 6 -18 10 -21 7 -2 -3 -5 2 -5 10 0 19 0 19 23 -7z m64 2 c8 -5 11 -10
5 -10 -5 0 -17 5 -25 10 -8 5 -10 10 -5 10 6 0 17 -5 25 -10z m-10 -30 c9 -16
8 -18 -5 -14 -8 3 -13 10 -10 14 3 5 -1 11 -7 13 -10 4 -10 6 -1 6 7 1 17 -8
23 -19z m40 -30 c0 -5 -4 -10 -10 -10 -5 0 -10 5 -10 10 0 6 5 10 10 10 6 0
10 -4 10 -10z"/>
<path d="M2657 4442 c5 -11 3 -13 -8 -6 -8 4 -23 10 -34 12 -20 3 -20 3 0 -12
11 -9 15 -16 8 -16 -6 0 -18 7 -27 15 -18 19 -22 19 -30 -1 -3 -8 -2 -13 3 -9
13 8 42 -5 35 -16 -3 -5 -9 -7 -14 -4 -5 3 -19 1 -31 -5 -28 -15 -62 -50 -48
-50 6 0 19 10 28 21 10 12 29 22 44 22 15 0 27 3 27 8 0 5 5 9 10 9 6 0 9 -6
8 -12 -2 -7 3 -12 10 -10 6 1 12 -3 12 -8 0 -7 -16 -9 -38 -6 -21 2 -45 0 -53
-5 -10 -8 -7 -8 11 -3 23 6 24 6 10 -12 -8 -10 -21 -25 -29 -31 -10 -9 -11
-13 -2 -13 7 0 9 -5 5 -12 -5 -9 -2 -8 9 1 23 19 29 11 11 -14 -15 -20 -15
-20 -30 -1 -12 17 -14 17 -14 3 0 -9 -8 -21 -17 -26 -10 -6 -13 -11 -7 -11 5
0 15 5 20 10 13 13 67 -8 58 -22 -3 -4 -10 -6 -15 -3 -5 3 -6 -2 -2 -11 4 -12
3 -15 -5 -10 -7 4 -12 2 -12 -3 0 -17 18 -13 29 7 11 18 11 18 15 -16 2 -13
-1 -25 -6 -28 -4 -3 -8 0 -8 7 0 6 -8 9 -19 6 -13 -3 -21 1 -24 12 -4 15 -5
15 -6 -1 -1 -18 56 -71 69 -63 4 2 8 -6 8 -19 0 -19 -5 -23 -24 -21 -13 1 -22
-1 -21 -4 5 -9 -41 -50 -48 -43 -3 4 -3 -2 1 -12 7 -17 8 -17 19 3 11 22 27
19 19 -3 -3 -7 3 -19 12 -27 16 -13 16 -12 7 6 -6 11 -8 26 -6 33 3 6 -1 12
-9 12 -10 0 -9 3 2 10 22 14 27 12 25 -12 -4 -38 13 -60 35 -48 22 12 33 13
26 2 -2 -4 4 -8 14 -8 10 0 16 4 14 8 -3 4 -1 8 5 8 5 0 12 -6 14 -12 4 -10 6
-10 6 0 1 8 6 10 13 6 20 -12 141 -12 157 0 11 8 13 8 8 -1 -8 -13 10 -12 32
1 9 6 12 5 8 0 -3 -6 127 -10 338 -12 385 -2 407 -5 446 -68 54 -88 52 -31 54
-1477 2 -1220 1 -1337 -14 -1338 -9 0 -107 0 -218 -1 l-202 0 2 -226 2 -226
65 -12 c195 -36 335 -109 473 -246 l98 -98 267 0 267 0 30 41 c110 148 298
257 525 303 l65 13 3 225 2 226 -211 0 c-116 0 -214 3 -217 7 -4 4 -7 592 -8
1308 -1 716 -4 1325 -7 1352 -12 102 -17 131 -32 190 -44 173 -162 320 -315
392 -92 44 -182 69 -282 79 -35 4 -287 7 -561 8 -434 1 -500 -1 -508 -14 -7
-13 -8 -13 -9 0 0 13 -14 15 -82 12 -46 -2 -89 -9 -97 -16 -11 -8 -15 -8 -18
2 -6 15 -33 16 -33 1 0 -5 4 -7 10 -4 5 3 7 0 4 -9 -4 -12 1 -14 25 -11 17 2
31 0 31 -5 0 -6 5 -9 11 -7 6 1 14 -5 16 -13 4 -13 3 -13 -6 0 -6 8 -11 11
-11 6 0 -5 -6 -3 -14 3 -15 12 -23 0 -32 -48 -4 -21 -3 -22 10 -12 8 7 12 19
9 27 -6 16 22 20 32 4 3 -5 0 -7 -9 -4 -11 4 -14 0 -11 -19 5 -24 -13 -49 -31
-46 -20 3 -28 -2 -15 -10 15 -10 51 -3 51 10 0 5 5 9 11 9 8 0 8 -5 -1 -15
-10 -12 -10 -18 0 -30 8 -9 8 -15 2 -15 -6 0 -12 5 -14 12 -2 6 -14 12 -26 13
-13 1 -21 -3 -19 -9 2 -6 12 -10 21 -10 14 2 15 -1 4 -14 -11 -13 -10 -15 4
-10 9 4 24 0 35 -7 10 -8 13 -15 6 -15 -6 0 -14 4 -17 8 -7 12 -49 8 -53 -5
-2 -6 8 -9 22 -7 15 1 24 0 21 -3 -3 -3 4 -13 15 -22 36 -29 32 -111 -4 -84
-7 5 -25 8 -42 7 -19 -2 -25 0 -17 5 11 7 10 10 -3 15 -23 8 -24 8 -21 -10 3
-21 22 -32 52 -28 24 2 32 -10 14 -21 -5 -3 -10 -1 -10 4 0 6 -4 11 -9 11 -5
0 -8 -8 -7 -17 1 -13 -5 -17 -21 -16 -17 2 -21 -2 -18 -17 3 -17 1 -18 -14
-10 -10 5 -22 6 -26 2 -4 -4 -3 2 3 13 8 15 6 26 -11 50 -22 30 -32 69 -16 59
5 -3 6 3 3 13 -5 15 -4 16 5 3 9 -13 11 -13 11 0 0 13 1 13 10 0 6 -9 10 -10
10 -3 0 6 -4 14 -10 18 -5 3 -7 13 -4 23 5 13 4 14 -4 3 -7 -9 -12 -10 -16 -2
-4 6 -2 11 5 11 7 0 9 3 6 6 -3 4 -2 16 4 27 9 15 8 18 -3 11 -11 -7 -11 -5 0
9 8 9 10 22 6 28 -5 8 -3 9 6 4 9 -6 11 -4 5 5 -5 9 -4 11 3 6 8 -5 10 -1 5
10 -5 14 -3 16 13 10 16 -6 17 -5 6 6 -11 11 -16 10 -28 -6 -8 -11 -14 -15
-14 -9 0 7 5 15 11 18 7 5 5 13 -6 25 -9 10 -14 23 -11 29 4 5 2 12 -4 16 -6
4 -7 12 -3 18 4 7 -2 5 -13 -3 -18 -14 -18 -14 -5 2 7 10 17 15 22 12 5 -3 9
-1 9 4 0 5 -9 12 -19 15 -15 3 -18 1 -14 -11z m-12 -25 c0 -7 7 -12 15 -12 8
-1 14 -7 12 -14 -2 -8 4 -21 13 -31 11 -12 13 -20 6 -25 -6 -3 -9 -19 -6 -35
3 -16 0 -32 -5 -35 -6 -4 -8 -11 -5 -16 4 -5 2 -17 -4 -26 -7 -13 -5 -23 7
-37 9 -11 12 -16 5 -13 -29 18 -38 -48 -10 -84 17 -23 19 -34 10 -47 -6 -9
-18 -16 -27 -14 -9 2 -25 -2 -37 -9 -15 -8 -19 -8 -15 0 4 6 3 11 -2 11 -4 0
-8 13 -8 29 0 17 4 29 10 28 6 -1 11 7 11 18 1 11 6 19 13 18 6 -2 9 4 6 11
-3 8 -14 13 -24 11 -11 -2 -30 5 -42 15 -13 11 -18 19 -11 20 6 0 14 -4 18
-10 3 -5 11 -7 19 -4 14 5 18 64 4 64 -5 0 -6 5 -3 10 3 6 -1 13 -10 16 -14 6
-14 9 -2 28 19 28 11 52 -11 34 -13 -11 -12 -8 2 14 16 24 55 51 41 28 -9 -14
8 -12 30 3 16 13 13 43 -4 33 -4 -3 -7 6 -7 19 0 14 2 22 6 19 3 -3 5 -11 5
-17z m195 13 c8 -5 12 -11 10 -14 -3 -2 -14 2 -24 10 -22 15 -10 19 14 4z m45
-50 c0 -3 3 -10 7 -16 4 -6 1 -11 -7 -11 -7 0 -12 8 -10 18 2 10 0 21 -6 24
-5 4 -9 12 -9 18 1 11 24 -21 25 -33z m90 1 c-9 -8 -36 -10 -30 -2 2 4 11 8
20 8 8 0 13 -3 10 -6z m48 -6 c4 -8 3 -16 -1 -19 -4 -3 -9 4 -9 15 -2 23 3 25
10 4z m-158 -45 c0 -7 -6 -14 -13 -16 -7 -1 -8 0 -2 3 5 2 10 9 10 14 0 6 -4
8 -8 5 -4 -2 -14 0 -22 5 -11 7 -8 8 10 6 14 -2 25 -10 25 -17z m75 15 c0 -2
-6 -8 -13 -14 -10 -8 -14 -7 -14 2 0 8 6 14 14 14 7 0 13 -1 13 -2z m-50 -45
c0 -5 -4 -10 -10 -10 -5 0 -10 5 -10 10 0 6 5 10 10 10 6 0 10 -4 10 -10z
m-30 -26 c0 -2 -7 -4 -15 -4 -8 0 -15 4 -15 10 0 5 7 7 15 4 8 -4 15 -8 15
-10z m95 4 c3 -3 -8 -4 -25 -3 -16 1 -30 -2 -30 -8 0 -6 -3 -8 -6 -4 -3 3 -3
10 0 15 6 10 51 10 61 0z m-92 -43 c4 -8 1 -17 -5 -21 -7 -4 -8 -3 -4 4 4 7 2
12 -3 12 -6 0 -11 5 -11 10 0 15 17 12 23 -5z m121 -16 c3 -3 -5 -5 -19 -5
-13 0 -22 3 -19 7 4 8 30 6 38 -2z m43 -4 c0 -8 -4 -12 -9 -9 -5 3 -6 10 -3
15 9 13 12 11 12 -6z m-137 -14 c0 -6 -4 -12 -8 -15 -5 -3 -9 1 -9 9 0 8 4 15
9 15 4 0 8 -4 8 -9z m-33 -7 c-3 -3 -12 -4 -19 -1 -8 3 -5 6 6 6 11 1 17 -2
13 -5z m83 -9 c0 -2 -6 -8 -13 -14 -10 -8 -14 -7 -14 2 0 8 6 14 14 14 7 0 13
-1 13 -2z m-37 -25 c4 -16 2 -18 -13 -10 -9 5 -21 6 -25 2 -5 -4 -5 -1 -1 6 4
7 12 10 17 7 5 -4 9 -1 9 4 0 18 7 12 13 -9z m-18 -30 c-3 -5 -12 -10 -18 -10
-7 0 -6 4 3 10 19 12 23 12 15 0z m42 -18 c0 -10 -6 -19 -13 -19 -9 0 -9 5 -1
19 7 10 13 18 14 18 1 0 1 -8 0 -18z m-47 -32 c-18 -12 -30 -13 -30 -2 0 4 10
9 22 9 18 2 20 0 8 -7z m-46 -14 c-3 -7 -16 -18 -30 -24 -13 -7 -24 -15 -24
-20 0 -5 -7 -9 -15 -9 -8 0 -15 4 -15 9 0 4 6 8 13 8 6 0 26 11 42 25 35 29
36 29 29 11z m93 -16 c-19 -25 -20 -26 -14 -8 3 9 1 19 -6 21 -7 3 -2 4 10 4
18 -1 20 -4 10 -17z m57 8 c-3 -4 -11 -5 -19 -1 -21 7 -19 12 4 10 11 0 18 -5
15 -9z m40 4 c3 -5 -1 -9 -9 -9 -8 0 -12 4 -9 9 3 4 7 8 9 8 2 0 6 -4 9 -8z
m-176 -28 c0 -17 -3 -22 -8 -13 -5 6 -6 18 -3 26 8 19 11 16 11 -13z m118 4
c4 -7 4 -10 -1 -6 -4 4 -15 2 -24 -5 -14 -11 -14 -10 -2 6 16 20 18 21 27 5z"/>
<path d="M2645 4354 c-11 -8 -21 -19 -21 -24 -3 -23 -5 -24 -14 -10 -7 11 -8
4 -5 -23 4 -29 2 -36 -7 -31 -8 5 -8 1 2 -12 22 -29 24 -30 17 -11 -5 13 -3
17 5 14 7 -2 12 -10 11 -16 -2 -6 2 -11 7 -11 17 0 25 5 25 15 0 6 4 15 7 21
4 6 5 22 3 34 -3 13 0 29 5 35 17 21 -11 36 -35 19z m26 -18 c-6 -7 -8 -24 -6
-38 3 -15 1 -29 -4 -33 -6 -3 -7 -13 -4 -23 4 -9 -5 -4 -19 13 -20 23 -24 34
-17 48 6 10 14 15 20 12 5 -4 9 -1 9 4 0 6 -5 11 -12 11 -6 0 -3 6 7 14 23 16
41 10 26 -8z"/>
<path d="M2638 4292 c4 -11 2 -13 -9 -7 -12 8 -12 6 0 -8 15 -19 24 -16 26 12
1 10 -4 18 -11 18 -7 0 -10 -7 -6 -15z"/>
<path d="M2615 4210 c-8 -13 4 -32 15 -25 5 3 11 1 15 -5 3 -5 1 -10 -5 -10
-6 0 -8 -5 -5 -11 5 -6 12 -4 20 8 15 20 12 29 -15 43 -13 7 -21 7 -25 0z"/>
<path d="M2620 4084 c-14 -15 -19 -24 -11 -19 10 6 12 2 6 -16 -4 -16 -3 -20
3 -11 13 19 16 19 35 3 10 -7 17 -12 18 -10 6 32 5 42 -10 60 l-16 20 -25 -27z
m45 -23 c3 -18 1 -20 -9 -12 -7 6 -17 7 -21 3 -5 -4 -5 -1 -1 6 4 7 12 9 18 6
7 -4 8 -2 4 4 -4 6 -14 8 -24 5 -15 -6 -15 -5 -3 11 16 19 29 11 36 -23z"/>
<path d="M2498 4431 c5 -13 3 -14 -9 -4 -13 10 -16 10 -16 -1 0 -18 27 -14 38
6 5 10 4 15 -5 15 -9 0 -12 -7 -8 -16z"/>
<path d="M2530 4438 c0 -9 5 -20 10 -23 13 -8 13 5 0 25 -8 13 -10 13 -10 -2z"/>
<path d="M2693 4430 c-8 -11 -9 -21 -3 -25 5 -3 7 -12 4 -20 -4 -9 5 -21 25
-32 30 -18 37 -41 10 -35 -8 2 -11 0 -7 -4 4 -4 3 -13 -2 -20 -16 -18 -21 -56
-8 -48 6 4 8 3 5 -3 -4 -6 0 -16 8 -23 8 -7 13 -16 10 -20 -6 -9 25 -25 55
-29 6 0 10 -9 10 -18 0 -15 -2 -14 -16 3 -14 18 -15 18 -10 -6 3 -14 3 -19 0
-12 -3 6 -9 10 -14 7 -4 -3 -7 3 -6 13 0 10 -6 17 -15 16 -10 -1 -16 5 -14 15
3 18 -12 41 -27 41 -6 0 -5 -7 2 -15 7 -9 10 -18 7 -22 -4 -3 -2 -12 5 -20 8
-10 8 -17 0 -25 -7 -7 -12 -9 -12 -4 0 4 -7 0 -16 -8 -14 -14 -13 -19 9 -48
14 -18 22 -39 20 -45 -3 -7 0 -13 7 -13 6 0 9 4 6 9 -3 5 1 14 9 21 10 9 15 9
15 1 0 -6 5 -11 10 -11 19 0 10 18 -17 36 -15 9 -33 17 -40 17 -8 0 -9 6 -2
19 12 22 21 24 13 3 -4 -8 -1 -15 6 -15 6 0 9 4 5 9 -11 18 16 23 40 7 28 -19
39 -20 29 -5 -3 6 5 3 20 -6 l26 -17 -4 31 c-4 41 -36 67 -73 62 -15 -2 -17
21 -3 35 7 7 6 19 -2 37 -13 26 -30 38 -25 16 1 -6 -4 -13 -11 -14 -7 -2 -8
-1 -2 2 5 2 8 9 5 13 -6 10 32 34 54 35 8 0 17 7 19 15 4 12 3 13 -10 3 -12
-11 -18 -9 -33 7 -14 16 -15 19 -4 15 9 -3 16 0 16 7 0 7 2 20 4 28 2 8 -2 14
-9 12 -7 -1 -18 9 -24 23 -14 30 -29 32 -45 5z m28 -14 c-11 -13 -5 -26 11
-26 5 0 6 6 2 13 -6 9 -5 9 8 0 8 -7 17 -12 19 -10 3 1 -4 -6 -15 -16 -22 -20
-41 -18 -41 6 0 8 -4 19 -8 23 -9 10 13 35 25 28 5 -4 5 -11 -1 -18z m34 -186
c-5 -8 -11 -8 -17 -2 -6 6 -7 16 -3 22 5 8 11 8 17 2 6 -6 7 -16 3 -22z m-24
-83 c-10 -9 -11 -8 -5 6 3 10 9 15 12 12 3 -3 0 -11 -7 -18z m99 -1 c0 -3 -4
-8 -10 -11 -5 -3 -10 -1 -10 4 0 6 5 11 10 11 6 0 10 -2 10 -4z m-90 -71 c0
-15 -21 -12 -30 5 -11 20 -10 21 9 10 12 -6 21 -13 21 -15z"/>
<path d="M2710 4380 c0 -5 5 -10 11 -10 5 0 7 5 4 10 -3 6 -8 10 -11 10 -2 0
-4 -4 -4 -10z"/>
<path d="M2314 4422 c4 -3 14 -7 22 -8 9 -1 13 0 10 4 -4 3 -14 7 -22 8 -9 1
-13 0 -10 -4z"/>
<path d="M2375 4420 c-3 -5 -1 -10 4 -10 6 0 11 5 11 10 0 6 -2 10 -4 10 -3 0
-8 -4 -11 -10z"/>
<path d="M2409 4403 c-13 -16 -12 -17 4 -4 9 7 17 15 17 17 0 8 -8 3 -21 -13z"/>
<path d="M2436 4391 c-13 -14 -14 -18 -2 -18 8 0 15 3 14 6 -2 19 4 24 12 11
6 -9 10 -10 10 -3 0 21 -17 23 -34 4z"/>
<path d="M2505 4400 c-3 -5 -2 -10 4 -10 5 0 13 5 16 10 3 6 2 10 -4 10 -5 0
-13 -4 -16 -10z"/>
<path d="M2470 4355 c5 -7 7 -15 3 -18 -3 -4 -1 -7 5 -7 6 0 10 8 9 18 0 10
-7 19 -14 19 -9 0 -10 -4 -3 -12z"/>
<path d="M2535 4340 c-3 -5 -2 -10 4 -10 5 0 13 5 16 10 3 6 2 10 -4 10 -5 0
-13 -4 -16 -10z"/>
<path d="M2436 4318 c3 -5 10 -6 15 -3 13 9 11 12 -6 12 -8 0 -12 -4 -9 -9z"/>
<path d="M2505 4320 c3 -5 11 -10 16 -10 6 0 7 5 4 10 -3 6 -11 10 -16 10 -6
0 -7 -4 -4 -10z"/>
<path d="M2333 4305 c0 -8 4 -12 9 -9 5 3 6 10 3 15 -9 13 -12 11 -12 -6z"/>
<path d="M2475 4299 c-18 -8 -18 -9 3 -5 17 3 22 1 18 -10 -3 -8 -1 -14 4 -14
12 0 13 27 3 33 -5 3 -17 0 -28 -4z"/>
<path d="M2435 4290 c-4 -6 -10 -8 -14 -6 -4 3 -8 -1 -8 -9 0 -13 4 -12 19 2
18 16 22 23 14 23 -3 0 -8 -5 -11 -10z"/>
<path d="M2440 4255 c-7 -8 -16 -13 -19 -10 -4 2 -8 -3 -8 -11 0 -10 4 -11 10
-5 7 7 15 5 24 -7 13 -15 13 -15 4 4 -7 15 -7 24 1 32 7 7 9 12 6 12 -3 0 -11
-7 -18 -15z"/>
<path d="M2339 4233 c-13 -16 -12 -17 4 -4 9 7 17 15 17 17 0 8 -8 3 -21 -13z"/>
<path d="M2530 4240 c0 -5 -7 -10 -17 -10 -9 0 -14 -3 -10 -6 8 -8 47 5 47 17
0 5 -4 9 -10 9 -5 0 -10 -4 -10 -10z"/>
<path d="M2414 4197 c-4 -6 -4 -9 1 -5 4 4 14 3 22 -4 7 -6 15 -9 18 -7 2 3
-4 10 -15 17 -15 9 -21 9 -26 -1z"/>
<path d="M2496 4195 c5 -11 1 -14 -12 -9 -15 5 -16 4 -4 -4 8 -6 18 -8 22 -6
11 7 10 34 -2 34 -5 0 -7 -7 -4 -15z"/>
<path d="M2414 4160 c0 -13 4 -16 10 -10 7 7 7 13 0 20 -6 6 -10 3 -10 -10z"/>
<path d="M2467 4159 c7 -9 10 -19 6 -22 -3 -4 -1 -7 5 -7 17 0 15 16 -5 31
-16 12 -17 12 -6 -2z"/>
<path d="M2505 4160 c-3 -5 -2 -10 4 -10 5 0 13 5 16 10 3 6 2 10 -4 10 -5 0
-13 -4 -16 -10z"/>
<path d="M2330 4139 c0 -5 5 -7 10 -4 6 3 10 8 10 11 0 2 -4 4 -10 4 -5 0 -10
-5 -10 -11z"/>
<path d="M2540 4135 c10 -12 10 -18 0 -30 -7 -9 -8 -15 -2 -15 5 0 12 7 16 15
3 9 12 12 22 8 12 -4 15 -3 10 5 -4 7 -14 12 -22 12 -8 0 -14 5 -14 10 0 6 -5
10 -11 10 -8 0 -8 -5 1 -15z"/>
<path d="M2386 4118 c3 -4 15 -6 27 -4 12 2 30 -1 39 -6 13 -6 16 -5 13 5 -3
7 -21 13 -44 12 -22 0 -37 -3 -35 -7z"/>
<path d="M2500 4126 c0 -2 7 -6 15 -10 8 -3 15 -1 15 4 0 6 -7 10 -15 10 -8 0
-15 -2 -15 -4z"/>
<path d="M2414 4089 c-3 -6 -2 -15 3 -20 5 -5 9 -1 9 11 0 23 -2 24 -12 9z"/>
<path d="M2475 4091 c-3 -5 -2 -12 3 -15 5 -3 9 1 9 9 0 17 -3 19 -12 6z"/>
<path d="M2497 4068 c-5 -21 -5 -21 7 -6 7 10 17 14 21 10 5 -4 5 -1 1 6 -11
19 -23 14 -29 -10z"/>
<path d="M2439 4055 c-1 -3 -2 -8 -3 -12 -1 -5 -4 -13 -8 -19 -4 -6 -1 -11 5
-11 7 0 13 11 13 24 0 21 -4 31 -7 18z"/>
<path d="M2474 4031 c4 -5 0 -12 -6 -15 -7 -2 -3 -4 9 -2 12 1 26 6 30 11 5 4
2 5 -4 1 -7 -4 -13 -2 -13 3 0 6 -5 11 -11 11 -5 0 -8 -4 -5 -9z"/>
<path d="M2350 1107 c0 -5 6 -7 13 -4 8 3 14 -1 14 -8 0 -7 -6 -11 -13 -8 -15
6 -28 -13 -14 -22 17 -10 50 14 44 33 -5 14 -4 15 5 2 6 -8 11 -11 11 -6 0 5
8 2 18 -7 10 -10 23 -14 27 -10 5 5 3 -1 -5 -11 -9 -12 -10 -17 -3 -12 9 5 11
2 6 -9 -4 -13 -7 -14 -14 -3 -6 9 -8 6 -6 -10 0 -12 5 -22 10 -22 4 0 5 -5 1
-11 -4 -8 -9 -7 -15 2 -5 8 -9 9 -9 3 0 -6 3 -14 7 -18 11 -11 11 -56 0 -49
-6 4 -7 1 -2 -8 7 -11 5 -11 -10 1 -15 12 -17 12 -10 1 5 -9 4 -12 -2 -8 -6 4
-14 0 -17 -9 -9 -23 -7 -31 4 -14 5 8 12 11 17 7 4 -5 1 -12 -7 -17 -8 -5 -11
-12 -7 -17 5 -4 12 -1 17 7 6 9 10 10 10 3 0 -6 -5 -15 -10 -18 -6 -4 -7 -11
-4 -17 4 -6 2 -8 -3 -5 -17 11 -25 -25 -9 -41 12 -12 15 -11 21 8 6 20 7 21
22 3 8 -10 12 -12 8 -6 -4 9 -1 11 10 7 12 -5 13 -9 4 -20 -10 -12 -14 -11
-25 3 -7 10 -14 13 -14 6 0 -6 5 -15 10 -18 7 -4 7 -12 0 -24 -5 -10 -6 -21
-3 -25 3 -3 1 -6 -6 -6 -7 0 -9 -5 -5 -11 4 -8 9 -7 16 2 7 11 8 10 4 -4 -4
-13 -2 -16 7 -11 8 5 7 2 -2 -9 -8 -11 -18 -14 -25 -8 -6 4 -22 7 -35 6 -22
-2 -23 -1 -6 12 11 7 15 13 10 13 -5 0 -4 5 2 11 13 13 6 42 -7 34 -5 -3 -12
0 -16 6 -5 8 -3 9 6 4 8 -5 11 -3 8 6 -3 8 -12 13 -19 11 -11 -3 -12 -1 -1 9
20 21 14 34 -7 15 -18 -16 -18 -19 -3 -36 8 -11 17 -27 19 -37 4 -24 -17 -64
-30 -56 -5 3 -5 8 2 13 9 5 7 11 -5 21 -15 12 -17 12 -12 -1 3 -8 -2 -24 -11
-34 -15 -18 -15 -19 0 -13 9 3 22 0 28 -6 8 -8 11 -8 11 0 0 13 18 12 39 -1 9
-6 12 -5 8 1 -4 7 3 10 18 9 14 0 25 -5 25 -11 0 -5 5 -3 10 5 5 8 10 11 10 6
0 -5 7 -3 15 4 10 9 15 9 15 1 0 -13 33 -9 52 7 8 6 18 9 21 5 13 -12 47 29
38 46 -5 9 -7 22 -5 29 1 7 0 8 -3 2 -2 -5 -9 -7 -15 -4 -5 4 -3 -5 6 -18 9
-14 13 -27 10 -31 -9 -9 -33 16 -26 28 2 6 -1 4 -8 -2 -12 -11 -11 -16 6 -29
14 -12 15 -14 3 -11 -9 3 -22 0 -28 -6 -9 -9 -11 -6 -7 13 2 14 7 33 11 43 5
11 3 17 -6 17 -17 0 -2 13 19 16 31 4 65 13 71 19 7 7 -36 0 -61 -10 -11 -4
-18 -3 -18 4 0 6 6 11 14 11 8 0 18 5 22 12 5 8 2 9 -9 5 -20 -8 -49 2 -42 13
3 5 13 7 23 5 9 -1 11 0 5 2 -7 3 -13 9 -13 14 0 6 4 7 10 4 6 -4 7 1 3 12 -9
27 12 5 31 -32 l16 -30 -2 27 c-1 15 -6 24 -10 22 -4 -3 -8 2 -8 10 0 9 5 16
10 16 6 0 10 5 10 11 0 8 -4 8 -12 2 -19 -15 -50 -12 -44 4 3 8 1 11 -5 8 -5
-4 -7 -14 -5 -23 7 -22 -4 -37 -29 -39 -15 -1 -21 4 -22 19 -2 16 1 18 10 9
14 -14 27 -14 27 1 0 6 -3 8 -7 5 -8 -8 -33 11 -33 25 0 6 7 4 16 -3 13 -11
17 -10 25 4 16 27 48 40 65 26 9 -7 14 -8 14 -1 0 6 -6 12 -12 15 -10 3 -10
10 1 30 8 15 11 30 8 34 -4 3 -7 0 -7 -8 -1 -21 -37 -65 -47 -56 -4 5 -1 13 7
18 13 9 13 10 -1 6 -12 -4 -16 2 -16 23 0 25 3 28 20 19 10 -6 21 -8 24 -5 3
3 -6 10 -20 15 -14 5 -28 15 -32 20 -8 14 8 14 21 1 17 -17 13 23 -4 43 -15
17 -52 24 -52 10 0 -5 -11 -9 -25 -9 -13 -1 -23 3 -22 9 1 6 -19 11 -50 12
-29 0 -53 -3 -53 -8z m97 -14 c0 -9 -4 -10 -14 -2 -7 6 -13 12 -13 14 0 1 6 2
13 2 8 0 14 -6 14 -14z m94 -3 c10 -6 19 -16 19 -22 0 -7 -5 -6 -15 2 -10 9
-15 9 -15 1 0 -6 -4 -11 -10 -11 -5 0 -7 8 -4 18 5 13 4 14 -4 3 -8 -10 -14
-11 -28 -1 -16 9 -16 11 -2 6 10 -3 20 -1 23 4 8 13 12 12 36 0z m-31 -35 c35
-18 35 -18 13 -36 -15 -12 -16 -12 -10 4 4 10 3 16 -2 13 -5 -3 -12 1 -15 10
-3 8 -11 12 -17 9 -6 -4 -8 -14 -5 -22 4 -9 1 -12 -7 -8 -6 4 -4 0 6 -8 22
-18 22 -31 1 -23 -14 6 -15 4 -4 -9 9 -11 15 -13 20 -5 5 8 9 6 14 -6 3 -9 4
-19 1 -22 -3 -3 -5 -1 -5 5 0 5 -6 10 -13 10 -8 0 -14 -5 -14 -11 0 -6 13 -11
28 -11 27 -1 27 0 13 27 -18 34 -18 33 6 35 11 1 20 -2 20 -8 0 -5 -5 -9 -11
-9 -6 0 -4 -9 5 -21 13 -18 12 -23 -2 -39 -8 -11 -20 -16 -26 -12 -30 18 -47
7 -24 -16 9 -9 9 -12 -1 -12 -11 0 -11 -3 -1 -15 7 -8 9 -15 6 -15 -4 0 -2 -9
4 -20 6 -11 15 -18 20 -15 4 3 16 2 24 -1 15 -6 15 -9 1 -30 -9 -14 -11 -25
-5 -29 6 -4 7 -13 1 -23 -4 -9 -7 -27 -6 -38 1 -20 -16 -27 -31 -12 -7 7 14
49 30 61 7 6 4 7 -6 3 -22 -7 -22 -3 -3 37 12 24 12 28 2 15 -14 -18 -33 -26
-23 -10 2 4 0 14 -5 22 -7 12 -8 11 -6 -5 1 -11 7 -26 11 -34 6 -9 5 -12 -2
-8 -6 5 -8 -1 -4 -15 3 -13 1 -19 -5 -15 -16 10 -25 -23 -12 -39 6 -8 10 -14
8 -15 -36 -7 -40 -7 -30 5 7 9 6 19 -5 34 -9 14 -11 22 -4 22 6 0 9 4 6 9 -3
4 3 16 14 26 10 9 16 23 13 31 -3 8 -8 13 -11 10 -2 -3 -13 -1 -23 4 -14 8
-20 6 -28 -7 -5 -10 -13 -14 -17 -10 -4 4 1 14 12 22 10 8 15 15 10 15 -5 0
-3 6 3 14 10 11 10 20 1 37 -7 12 -8 19 -2 15 14 -8 26 12 28 47 1 15 2 28 4
30 2 2 9 39 12 65 2 16 13 15 48 -3z m-10 -40 c0 -5 -5 -3 -10 5 -5 8 -10 20
-10 25 0 6 5 3 10 -5 5 -8 10 -19 10 -25z m30 -169 c0 -2 -7 -7 -16 -10 -8 -3
-12 -2 -9 4 6 10 25 14 25 6z m-36 -121 c-7 -16 -24 -21 -24 -6 0 8 7 13 27
20 1 1 0 -6 -3 -14z"/>
<path d="M2455 960 c1 -17 -4 -37 -12 -45 -8 -8 -11 -20 -8 -25 4 -6 2 -17 -5
-25 -7 -9 -8 -15 0 -20 5 -3 10 -3 10 2 0 4 5 1 10 -7 9 -13 10 -13 10 0 0 13
1 13 10 0 8 -12 9 -9 6 10 -2 14 -8 24 -14 23 -6 -1 -13 4 -16 12 -3 9 0 12 8
9 9 -4 12 7 11 40 0 25 -3 48 -7 51 -3 3 -4 -8 -3 -25z m10 -99 c-9 -8 -36
-10 -30 -2 2 4 11 8 20 8 8 0 13 -3 10 -6z"/>
<path d="M2463 778 c-4 -7 -9 -22 -10 -33 l-3 -20 12 20 c12 20 19 45 13 45
-2 0 -7 -6 -12 -12z"/>
<path d="M2565 1099 c11 -13 21 -26 22 -28 2 -2 3 2 3 10 0 8 -10 20 -22 28
l-23 14 20 -24z"/>
<path d="M2614 1095 c-3 -8 -3 -18 0 -24 4 -5 -4 -12 -16 -14 -22 -5 -22 -5 1
-4 19 2 25 8 26 30 1 30 -3 34 -11 12z"/>
<path d="M2656 1101 c9 -9 34 -9 34 -1 0 5 -9 8 -20 7 -10 -1 -17 -3 -14 -6z"/>
<path d="M2391 1069 c-13 -10 -29 -19 -37 -19 -8 0 -14 -4 -14 -10 0 -5 9 -10
21 -10 11 0 17 5 14 10 -3 6 -1 10 5 10 7 0 10 -6 7 -14 -4 -11 0 -13 15 -11
11 3 17 1 14 -3 -7 -7 -11 -8 -37 -11 -5 0 -7 -6 -4 -11 4 -6 10 -8 15 -5 5 3
12 0 16 -6 4 -8 3 -9 -4 -5 -7 4 -12 2 -12 -3 0 -35 -17 -61 -35 -55 -8 4 -15
1 -15 -5 0 -6 5 -11 11 -11 8 0 8 -5 -1 -15 -10 -12 -10 -18 0 -30 9 -10 9
-15 1 -15 -6 0 -11 -4 -11 -9 0 -15 39 -9 45 7 3 7 0 22 -5 32 -13 24 7 71 29
68 17 -3 22 20 8 40 -6 7 -5 17 2 25 6 8 8 17 4 20 -3 4 -1 13 6 20 8 11 8 17
-1 25 -9 7 -20 5 -37 -9z m28 -15 c-6 -7 -15 -11 -21 -8 -5 3 -4 12 3 20 6 7
15 11 21 8 5 -3 4 -12 -3 -20z m-2 -89 c0 -8 -4 -12 -9 -9 -5 3 -6 10 -3 15 9
13 12 11 12 -6z m-37 -110 c0 -5 -5 -3 -10 5 -5 8 -10 20 -10 25 0 6 5 3 10
-5 5 -8 10 -19 10 -25z"/>
<path d="M2630 1086 c0 -2 7 -7 16 -10 8 -3 12 -2 9 4 -6 10 -25 14 -25 6z"/>
<path d="M2714 1065 c0 -28 8 -24 13 5 2 11 -1 20 -5 20 -4 0 -8 -11 -8 -25z"/>
<path d="M2676 1067 c3 -10 9 -15 12 -12 3 3 0 11 -7 18 -10 9 -11 8 -5 -6z"/>
<path d="M2625 1043 c-17 -14 -18 -15 -2 -9 15 5 17 2 12 -13 -3 -11 -1 -22 4
-26 7 -4 8 1 4 11 -5 12 -3 15 6 9 10 -6 11 -3 2 12 -6 11 -7 23 -4 27 12 12
-2 5 -22 -11z"/>
<path d="M2674 1008 l-19 -23 23 19 c21 18 27 26 19 26 -2 0 -12 -10 -23 -22z"/>
<path d="M2344 1008 c-4 -7 -14 -24 -23 -37 -11 -18 -12 -23 -2 -20 7 3 12 8
11 13 -2 9 19 26 33 26 4 0 7 -5 7 -11 0 -5 -4 -8 -9 -5 -15 10 -20 -22 -5
-34 8 -7 14 -9 15 -4 0 5 2 19 5 31 2 12 -1 25 -6 28 -6 4 -8 11 -5 16 4 5 2
9 -4 9 -5 0 -13 -6 -17 -12z"/>
<path d="M2615 979 c-4 -6 -5 -12 -2 -15 2 -3 7 2 10 11 7 17 1 20 -8 4z"/>
<path d="M2676 967 c3 -10 9 -15 12 -12 3 3 0 11 -7 18 -10 9 -11 8 -5 -6z"/>
<path d="M2630 961 c0 -6 4 -13 10 -16 6 -3 7 1 4 9 -7 18 -14 21 -14 7z"/>
<path d="M2705 940 c-3 -6 1 -7 9 -4 18 7 21 14 7 14 -6 0 -13 -4 -16 -10z"/>
<path d="M2776 942 c-3 -4 4 -9 15 -9 23 -2 25 3 4 10 -8 4 -16 3 -19 -1z"/>
<path d="M2622 920 c0 -14 2 -19 5 -12 2 6 2 18 0 25 -3 6 -5 1 -5 -13z"/>
<path d="M2570 920 c0 -5 5 -10 10 -10 6 0 10 5 10 10 0 6 -4 10 -10 10 -5 0
-10 -4 -10 -10z"/>
<path d="M2719 918 c-6 -20 -6 -39 0 -42 4 -3 7 6 7 20 0 20 -4 32 -7 22z"/>
<path d="M2673 893 c0 -9 4 -10 14 -2 7 6 13 12 13 14 0 1 -6 2 -13 2 -8 0
-14 -6 -14 -14z"/>
<path d="M2620 880 c0 -5 5 -10 11 -10 5 0 7 5 4 10 -3 6 -8 10 -11 10 -2 0
-4 -4 -4 -10z"/>
<path d="M2747 879 c7 -7 15 -10 18 -7 3 3 -2 9 -12 12 -14 6 -15 5 -6 -5z"/>
<path d="M2673 833 c0 -11 7 -20 14 -20 10 0 10 4 1 16 -7 9 -13 18 -15 20 -1
2 -1 -5 0 -16z"/>
<path d="M2716 842 c-3 -5 1 -9 9 -9 8 0 12 4 9 9 -3 4 -7 8 -9 8 -2 0 -6 -4
-9 -8z"/>
<path d="M2632 828 c2 -6 10 -13 16 -14 7 -1 8 0 2 3 -5 2 -8 9 -4 14 3 5 0 9
-6 9 -7 0 -10 -5 -8 -12z"/>
<path d="M2776 818 c3 -4 11 -5 19 -1 21 7 19 12 -4 10 -11 0 -18 -5 -15 -9z"/>
<path d="M2381 793 c8 -13 17 -23 22 -23 4 0 5 -4 2 -10 -3 -5 -1 -10 4 -10 6
0 11 5 11 10 0 6 0 12 0 15 0 3 -2 4 -4 3 -2 -2 -14 6 -26 17 l-23 20 14 -22z"/>
<path d="M2617 783 c-9 -19 0 -46 16 -49 10 -1 14 2 10 9 -4 7 0 8 13 3 15 -6
16 -5 7 5 -10 10 -16 9 -28 -1 -15 -12 -16 -11 -13 6 1 10 8 22 13 26 6 5 6 8
-2 8 -6 0 -14 -3 -16 -7z"/>
<path d="M2399 738 c-5 -18 -6 -39 -2 -34 4 3 13 0 22 -6 12 -10 12 -7 -2 8
-9 11 -14 24 -10 27 3 4 3 7 0 7 -4 0 -7 -1 -8 -2z"/>
<path d="M2630 700 c0 -5 5 -10 10 -10 6 0 10 5 10 10 0 6 -4 10 -10 10 -5 0
-10 -4 -10 -10z"/>
<path d="M2590 682 c0 -5 7 -9 15 -9 8 0 15 4 15 9 0 4 -7 8 -15 8 -8 0 -15
-4 -15 -8z"/>
<path d="M2666 679 c4 -8 30 -6 38 2 3 3 -5 5 -19 5 -13 0 -22 -3 -19 -7z"/>
</g>
</svg>
