<?xml version="1.0" encoding="UTF-8" standalone="no"?>
<!-- Created with Inkscape (http://www.inkscape.org/) -->

<svg
   xmlns:dc="http://purl.org/dc/elements/1.1/"
   xmlns:cc="http://creativecommons.org/ns#"
   xmlns:rdf="http://www.w3.org/1999/02/22-rdf-syntax-ns#"
   xmlns:svg="http://www.w3.org/2000/svg"
   xmlns="http://www.w3.org/2000/svg"
   xmlns:xlink="http://www.w3.org/1999/xlink"
   xmlns:sodipodi="http://sodipodi.sourceforge.net/DTD/sodipodi-0.dtd"
   xmlns:inkscape="http://www.inkscape.org/namespaces/inkscape"
   width="1500"
   height="421"
   viewBox="0 0 1500 421.00001"
   id="svg5206"
   version="1.1"
   inkscape:version="0.91 r13725"
   inkscape:export-filename="/home/kenanb/web/pagebg.png"
   inkscape:export-xdpi="180.02357"
   inkscape:export-ydpi="180.02357"
   sodipodi:docname="heading.svg">
  <defs
     id="defs5208">
    <linearGradient
       id="linearGradient5786"
       inkscape:collect="always">
      <stop
         id="stop5788"
         offset="0"
         style="stop-color:#ff3365;stop-opacity:1" />
      <stop
         id="stop5790"
         offset="1"
         style="stop-color:#ff3365;stop-opacity:0" />
    </linearGradient>
    <linearGradient
       inkscape:collect="always"
       xlink:href="#linearGradient5076"
       id="linearGradient5088"
       gradientUnits="userSpaceOnUse"
       x1="215.2498"
       y1="920.20453"
       x2="237.84019"
       y2="920.20453" />
    <linearGradient
       inkscape:collect="always"
       id="linearGradient5076">
      <stop
         style="stop-color:#333333;stop-opacity:1"
         offset="0"
         id="stop5078" />
      <stop
         style="stop-color:#333333;stop-opacity:0"
         offset="1"
         id="stop5080" />
    </linearGradient>
    <linearGradient
       inkscape:collect="always"
       xlink:href="#linearGradient5786"
       id="linearGradient5082"
       x1="215.2498"
       y1="920.20453"
       x2="237.84019"
       y2="920.20453"
       gradientUnits="userSpaceOnUse"
       gradientTransform="translate(507.93352,-66.027499)" />
  </defs>
  <sodipodi:namedview
     id="base"
     pagecolor="#ffffff"
     bordercolor="#666666"
     borderopacity="1.0"
     inkscape:pageopacity="1"
     inkscape:pageshadow="2"
     inkscape:zoom="0.49497475"
     inkscape:cx="231.85222"
     inkscape:cy="518.71103"
     inkscape:document-units="px"
     inkscape:current-layer="layer1"
     showgrid="false"
     units="mm"
     inkscape:window-width="1914"
     inkscape:window-height="1074"
     inkscape:window-x="0"
     inkscape:window-y="0"
     inkscape:window-maximized="0" />
  <metadata
     id="metadata5211">
    <rdf:RDF>
      <cc:Work
         rdf:about="">
        <dc:format>image/svg+xml</dc:format>
        <dc:type
           rdf:resource="http://purl.org/dc/dcmitype/StillImage" />
        <dc:title />
      </cc:Work>
    </rdf:RDF>
  </metadata>
  <g
     inkscape:label="Layer 1"
     inkscape:groupmode="layer"
     id="layer1"
     transform="translate(0,-631.36211)">
    <g
       id="g5781"
       transform="matrix(3.5967213,-3.5967213,3.5967213,3.5967213,-4827.5591,406.89787)">
      <path
         style="font-style:normal;font-variant:normal;font-weight:600;font-stretch:normal;font-size:125px;line-height:125%;font-family:'URW Bookman';-inkscape-font-specification:'URW Bookman Semi-Bold';letter-spacing:0px;word-spacing:0px;fill:url(#linearGradient5082);fill-opacity:1;stroke:none;stroke-width:1px;stroke-linecap:butt;stroke-linejoin:miter;stroke-opacity:1"
         d="m 694.96708,808.927 c -3.01978,4.3881 -7.56362,6.9517 -13.70508,7.7988 l 0,9.875 9.5,0 0,51.8262 c 0,7.625 0.5,10.625 2,13.625 2.75,5 7.625,7.375 15,7.375 l 38.01172,0 0,-9.87497 -30.26172,0 c -3.375,0 -4.5,-2 -4.5,-8.5 l 0,-54.45123 9.5,0 0,-9.875 c -6.14146,-0.8471 -10.68725,-3.4107 -13.70703,-7.7988 z"
         id="path4889"
         inkscape:connector-curvature="0"
         sodipodi:nodetypes="ccccscsccssccccc" />
      <g
         transform="matrix(-1,0,0,-1,966.3522,1782.1803)"
         id="g5084">
        <path
           style="font-style:normal;font-variant:normal;font-weight:600;font-stretch:normal;font-size:125px;line-height:125%;font-family:'URW Bookman';-inkscape-font-specification:'URW Bookman Semi-Bold';letter-spacing:0px;word-spacing:0px;fill:url(#linearGradient5088);fill-opacity:1;stroke:none;stroke-width:1px;stroke-linecap:butt;stroke-linejoin:miter;stroke-opacity:1"
           d="m 187.03356,874.9545 c -3.01978,4.3881 -7.56362,6.9517 -13.70508,7.7988 l 0,9.875 9.5,0 0,51.8262 c 0,7.625 0.5,10.625 2,13.625 2.75,5 7.625,7.375 15,7.375 l 38.01172,0 0,-9.87497 -30.26172,0 c -3.375,0 -4.5,-2 -4.5,-8.5 l 0,-54.45123 9.5,0 0,-9.875 c -6.14146,-0.8471 -10.68725,-3.4107 -13.70703,-7.7988 z"
           id="path5086"
           inkscape:connector-curvature="0"
           sodipodi:nodetypes="ccccscsccssccccc" />
      </g>
    </g>
  </g>
</svg>
