<?xml version="1.0" encoding="UTF-8" standalone="no"?>
<svg
   xmlns:dc="http://purl.org/dc/elements/1.1/"
   xmlns:cc="http://creativecommons.org/ns#"
   xmlns:rdf="http://www.w3.org/1999/02/22-rdf-syntax-ns#"
   xmlns:svg="http://www.w3.org/2000/svg"
   xmlns="http://www.w3.org/2000/svg"
   xmlns:xlink="http://www.w3.org/1999/xlink"
   xmlns:sodipodi="http://sodipodi.sourceforge.net/DTD/sodipodi-0.dtd"
   xmlns:inkscape="http://www.inkscape.org/namespaces/inkscape"
   version="1.1"
   id="svg5206"
   viewBox="0 0 32 32.000001"
   height="32"
   width="32"
   inkscape:version="0.91 r13725"
   sodipodi:docname="favicon.svg">
  <sodipodi:namedview
     pagecolor="#ffffff"
     bordercolor="#666666"
     borderopacity="1"
     objecttolerance="10"
     gridtolerance="10"
     guidetolerance="10"
     inkscape:pageopacity="0"
     inkscape:pageshadow="2"
     inkscape:window-width="1914"
     inkscape:window-height="1061"
     id="namedview4216"
     showgrid="false"
     inkscape:zoom="9.2365823"
     inkscape:cx="5.9801072"
     inkscape:cy="21.604397"
     inkscape:window-x="0"
     inkscape:window-y="16"
     inkscape:window-maximized="0"
     inkscape:current-layer="g5781" />
  <defs
     id="defs5208">
    <linearGradient
       id="linearGradient5786">
      <stop
         style="stop-color:#e8b661;stop-opacity:1"
         offset="0"
         id="stop5788" />
      <stop
         style="stop-color:#e8b661;stop-opacity:0"
         offset="1"
         id="stop5790" />
    </linearGradient>
    <linearGradient
       y2="920.20453"
       x2="237.84019"
       y1="920.20453"
       x1="215.2498"
       gradientUnits="userSpaceOnUse"
       id="linearGradient5088"
       xlink:href="#linearGradient5076" />
    <linearGradient
       id="linearGradient5076">
      <stop
         id="stop5078"
         offset="0"
         style="stop-color:#333333;stop-opacity:1" />
      <stop
         id="stop5080"
         offset="1"
         style="stop-color:#333333;stop-opacity:0" />
    </linearGradient>
    <linearGradient
       gradientTransform="translate(507.93352,-66.027499)"
       gradientUnits="userSpaceOnUse"
       y2="920.20453"
       x2="237.84019"
       y1="920.20453"
       x1="215.2498"
       id="linearGradient5082"
       xlink:href="#linearGradient5786" />
  </defs>
  <metadata
     id="metadata5211">
    <rdf:RDF>
      <cc:Work
         rdf:about="">
        <dc:format>image/svg+xml</dc:format>
        <dc:type
           rdf:resource="http://purl.org/dc/dcmitype/StillImage" />
        <dc:title />
      </cc:Work>
    </rdf:RDF>
  </metadata>
  <g
     transform="translate(0,-1020.3621)"
     id="layer1">
    <g
       transform="matrix(0.28632344,0,0,0.28632344,-195.06128,790.67471)"
       id="g5781">
      <path
         id="path4889"
         d="m 694.96708,808.927 c -3.01978,4.3881 -7.56362,6.9517 -13.70508,7.7988 l 0,9.875 9.5,0 0,51.8262 c 0,7.625 0.5,10.625 2,13.625 2.75,5 7.625,7.375 15,7.375 l 38.01172,0 0,-9.87497 -30.26172,0 c -3.375,0 -4.5,-2 -4.5,-8.5 l 0,-54.45123 9.5,0 0,-9.875 c -6.14146,-0.8471 -10.68725,-3.4107 -13.70703,-7.7988 z"
         style="font-style:normal;font-variant:normal;font-weight:600;font-stretch:normal;font-size:125px;line-height:125%;font-family:'URW Bookman';-inkscape-font-specification:'URW Bookman Semi-Bold';letter-spacing:0px;word-spacing:0px;fill:url(#linearGradient5082);fill-opacity:1;stroke:none;stroke-width:1px;stroke-linecap:butt;stroke-linejoin:miter;stroke-opacity:1" />
      <g
         id="g5084"
         transform="matrix(-1,0,0,-1,966.3522,1782.1803)">
        <path
           id="path5086"
           d="m 187.03356,874.9545 c -3.01978,4.3881 -7.56362,6.9517 -13.70508,7.7988 l 0,9.875 9.5,0 0,51.8262 c 0,7.625 0.5,10.625 2,13.625 2.75,5 7.625,7.375 15,7.375 l 38.01172,0 0,-9.87497 -30.26172,0 c -3.375,0 -4.5,-2 -4.5,-8.5 l 0,-54.45123 9.5,0 0,-9.875 c -6.14146,-0.8471 -10.68725,-3.4107 -13.70703,-7.7988 z"
           style="font-style:normal;font-variant:normal;font-weight:600;font-stretch:normal;font-size:125px;line-height:125%;font-family:'URW Bookman';-inkscape-font-specification:'URW Bookman Semi-Bold';letter-spacing:0px;word-spacing:0px;fill:url(#linearGradient5088);fill-opacity:1;stroke:none;stroke-width:1px;stroke-linecap:butt;stroke-linejoin:miter;stroke-opacity:1" />
      </g>
    </g>
  </g>
</svg>
